PathFileType	4	(X/Y/Z)	SUBJ59_2_walk_RCNL2025.trc
DataRate	CameraRate	NumFrames	NumMarkers	Units	OrigDataRate	OrigDataStartFrame	OrigNumFrames
100	100	12	25	mm	100	41	327
Frame#	Time	R_Shoulder			L_Shoulder			C7			J_Notch			R_Elbow			L_Elbow			R_Wrist			L_Wrist			R_Asis			L_Asis			Sacral			Thoracic			Sternum			R_Thigh_Lateral			R_Knee_Lateral			R_Shank_Lateral			R_Ankle_Lateral			R_Heel			R_Toe			L_Thigh_Lateral			L_Knee_Lateral			L_Shank_Lateral			L_Ankle_Lateral			L_Heel			L_Toe		
		X1	Y1	Z1	X2	Y2	Z2	X3	Y3	Z3	X4	Y4	Z4	X5	Y5	Z5	X6	Y6	Z6	X7	Y7	Z7	X8	Y8	Z8	X9	Y9	Z9	X10	Y10	Z10	X11	Y11	Z11	X12	Y12	Z12	X13	Y13	Z13	X14	Y14	Z14	X15	Y15	Z15	X16	Y16	Z16	X17	Y17	Z17	X18	Y18	Z18	X19	Y19	Z19	X20	Y20	Z20	X21	Y21	Z21	X22	Y22	Z22	X23	Y23	Z23	X24	Y24	Z24	X25	Y25	Z25
41	0.40000000	-1761.727539	1414.491211	447.045868	-1765.238403	1496.145386	55.462044	-1860.603760	1537.667725	261.227539	-1699.212769	1442.033691	245.904938	-1838.308594	1098.498901	514.659607	-1773.194458	1167.568848	-84.109871	-1816.088074	819.706757	507.223434	-1654.908691	929.964172	-58.022789	-1695.237793	986.497253	330.091614	-1706.760254	977.624878	102.458443	-1921.472900	1003.539429	228.053177	-1928.784790	1325.955444	219.667908	-1645.622681	1249.385254	214.500519	-1700.112183	593.381470	411.522919	-1694.611816	499.119995	355.964539	-1689.610962	297.867188	424.466492	-1730.805298	57.454781	311.996338	-1772.437622	46.625122	268.263824	-1571.740845	36.924374	271.077637	-1773.789062	588.231506	0.269639	-1773.017334	484.638947	53.713856	-1913.809448	351.176422	4.985836	-2082.624756	210.598053	98.975014	-2114.453857	231.152176	160.291733	-2031.460449	58.211628	141.070297
42	0.41000000	-1750.262207	1416.320923	447.053558	-1755.095215	1496.955688	55.362419	-1849.658081	1539.262207	261.477051	-1688.386719	1443.553711	245.907043	-1823.485840	1100.009277	515.970154	-1764.837524	1167.604980	-82.404282	-1796.999817	821.553314	508.509720	-1651.878479	927.209473	-57.785372	-1684.581299	987.430725	331.067261	-1695.302979	979.429077	103.283890	-1910.565186	1004.716614	228.586502	-1917.954468	1327.379761	220.542557	-1634.842773	1250.837036	214.766052	-1694.421997	593.425110	411.718109	-1690.240479	498.963409	355.968811	-1687.060181	297.629395	424.028412	-1730.728027	57.640472	311.811554	-1772.266479	46.571198	267.864319	-1571.683838	36.835915	270.918976	-1755.152954	590.950134	-0.167672	-1750.501343	487.494995	52.691479	-1890.428467	354.068512	4.598356	-2058.624512	212.994019	98.883911	-2090.802002	231.933319	160.619308	-2003.213135	60.893730	136.588318
43	0.42000000	-1739.021118	1418.342896	447.095154	-1745.146240	1497.738525	55.130863	-1838.794312	1540.882080	261.615448	-1677.619751	1445.137451	245.828156	-1808.736694	1101.722412	517.220337	-1756.613281	1167.636719	-80.726463	-1777.741516	823.716553	509.785675	-1649.086487	924.535858	-57.624172	-1673.998901	988.330200	332.003113	-1683.860718	981.376038	104.106415	-1899.671509	1006.037354	229.041855	-1907.152710	1328.790283	221.349228	-1624.095459	1252.347046	215.068710	-1689.007690	593.476379	411.853394	-1686.180298	498.816193	355.912170	-1684.520874	297.403961	423.572113	-1730.650513	57.804138	311.637787	-1772.104004	46.523102	267.476746	-1571.628662	36.762615	270.778290	-1736.784668	593.896240	-0.438849	-1728.218262	490.613037	51.803532	-1866.967041	356.816193	4.410508	-2033.655762	213.863266	98.764565	-2066.410156	231.112991	160.794266	-1973.231323	62.788170	132.724213
44	0.43000000	-1727.977905	1420.544800	447.187836	-1735.364014	1498.490234	54.790871	-1828.011353	1542.497437	261.655548	-1666.903931	1446.753296	245.674789	-1794.095947	1103.628174	518.411926	-1748.555420	1167.668457	-79.096443	-1758.356201	826.201324	511.041794	-1646.446472	921.991669	-57.555269	-1663.480225	989.218811	332.902832	-1672.444580	983.433716	104.920677	-1888.788452	1007.475220	229.386169	-1896.368530	1330.156372	222.094452	-1613.374146	1253.890381	215.416809	-1683.807373	593.542664	411.911377	-1682.411255	498.688416	355.792908	-1682.078125	297.192108	423.106903	-1730.571533	57.944168	311.470215	-1771.972290	46.518967	267.149872	-1571.576294	36.703655	270.656921	-1718.586914	596.942627	-0.531181	-1706.230713	493.887451	51.082699	-1843.350830	359.158569	4.324844	-2007.769531	213.183136	98.577972	-2041.293213	228.725220	160.740875	-1941.767944	63.881912	129.630661
45	0.44000000	-1717.097168	1422.894165	447.334747	-1725.713867	1499.195435	54.363754	-1817.305786	1544.076660	261.608429	-1656.233887	1448.365723	245.454422	-1779.595581	1105.697754	519.553162	-1740.691528	1167.687500	-77.535927	-1738.885803	828.990814	512.267151	-1643.885132	919.608765	-57.586275	-1653.016602	990.108521	333.770691	-1661.063110	985.555786	105.718239	-1877.919189	1008.981995	229.590179	-1885.595215	1331.447754	222.785721	-1602.672241	1255.436035	215.812729	-1678.779297	593.622253	411.886536	-1678.920410	498.590027	355.618103	-1679.800171	297.005463	422.647949	-1730.489990	58.063103	311.302002	-1771.889893	46.598885	266.929535	-1571.528442	36.659386	270.561005	-1700.521973	599.987305	-0.437659	-1684.614990	497.227112	50.565430	-1819.529419	360.871429	4.274704	-1981.006714	210.995163	98.315414	-2015.443848	224.822495	160.443604	-1909.039185	64.203796	127.381149
46	0.45000000	-1706.338257	1425.341553	447.524872	-1716.157227	1499.828613	53.867577	-1806.671387	1545.586914	261.482819	-1645.604248	1449.936890	245.175385	-1765.260254	1107.885742	520.656311	-1733.039062	1167.666870	-76.064835	-1719.368225	832.049438	513.452255	-1641.359619	917.389069	-57.709806	-1642.604614	990.990173	334.611694	-1649.718506	987.684937	106.493881	-1867.070312	1010.495300	229.632370	-1874.828003	1332.635620	223.429657	-1591.983398	1256.947388	216.253128	-1673.899902	593.707825	411.785339	-1675.696411	498.528320	355.404144	-1677.734619	296.859802	422.219513	-1730.405396	58.165897	311.126404	-1771.863525	46.783257	266.833008	-1571.486328	36.630459	270.499542	-1682.604126	602.954773	-0.161887	-1663.453369	500.555969	50.284519	-1795.506470	361.825806	4.234949	-1953.395264	207.387192	97.990761	-1988.831665	219.476929	159.938950	-1875.216675	63.816444	125.950386
47	0.46000000	-1695.658936	1427.826538	447.734863	-1706.653931	1500.356567	53.316689	-1796.098999	1546.995117	261.284637	-1635.008789	1451.428467	244.846405	-1751.105469	1110.135864	521.736450	-1725.608276	1167.574097	-74.701721	-1699.835571	835.328400	514.589874	-1638.855530	915.309021	-57.909332	-1632.250610	991.832581	335.430389	-1638.404053	989.753967	107.251480	-1856.248413	1011.948669	229.501373	-1864.063477	1333.694214	224.030136	-1581.301392	1258.385132	216.730164	-1669.163208	593.790588	411.623657	-1672.723755	498.504974	355.174591	-1675.906372	296.770416	421.851349	-1730.318237	58.258488	310.938843	-1771.885132	47.058598	266.835480	-1571.450439	36.617039	270.480988	-1664.876831	605.788818	0.285558	-1642.824097	503.809967	50.263222	-1771.332397	362.001312	4.219220	-1924.955688	202.481598	97.630608	-1961.412964	212.784897	159.300369	-1840.421509	62.806702	125.211540
48	0.47000000	-1685.019531	1430.284912	447.932892	-1697.163940	1500.742554	52.721024	-1785.578491	1548.267822	261.016174	-1624.440918	1452.804565	244.475189	-1737.136841	1112.387939	522.811096	-1718.403809	1167.376709	-73.464058	-1680.314514	838.769867	515.672958	-1636.355347	913.341583	-58.173048	-1621.974121	992.590515	336.229095	-1627.107300	991.690796	108.004021	-1845.459106	1013.281128	229.196091	-1853.299316	1334.601196	224.587357	-1570.620605	1259.711060	217.233673	-1664.572021	593.863647	411.424652	-1669.977051	498.515045	354.954956	-1674.317017	296.746490	421.568481	-1730.229492	58.346817	310.737854	-1771.937012	47.391266	266.888519	-1571.419922	36.617455	270.508759	-1647.390137	608.448914	0.890542	-1622.792847	506.934692	50.512344	-1747.076294	361.459076	4.265683	-1895.703369	196.424637	97.267151	-1933.143921	204.868805	158.621063	-1804.735596	61.276207	124.964073
49	0.48000000	-1674.385376	1432.652710	448.084015	-1687.649780	1500.949707	52.085377	-1775.098145	1549.373657	260.675323	-1613.894287	1454.032715	244.066971	-1723.350220	1114.581421	523.897400	-1711.420776	1167.044434	-72.366219	-1660.826904	842.310150	516.693146	-1633.819397	911.461609	-58.495678	-1611.802368	993.215454	337.006104	-1615.818848	993.427246	108.768097	-1834.706055	1014.443604	228.725189	-1842.534302	1335.338623	225.097916	-1559.934937	1260.889771	217.752365	-1660.126953	593.922180	411.216278	-1667.421021	498.547272	354.766571	-1672.951172	296.787781	421.381958	-1730.141479	58.436020	310.525757	-1771.999634	47.749912	266.947937	-1571.390747	36.625797	270.576141	-1630.186279	610.910767	1.634386	-1603.407837	509.882782	51.031261	-1722.808716	360.300446	4.416266	-1865.646362	189.376282	96.932289	-1903.984131	195.869537	157.992752	-1768.223755	59.336777	124.974403
50	0.49000000	-1663.728882	1434.869263	448.156738	-1678.078247	1500.944702	51.409645	-1764.644897	1550.284058	260.255951	-1603.361938	1455.082642	243.623840	-1709.731812	1116.658813	525.007141	-1704.640381	1166.550171	-71.416740	-1641.391479	845.884491	517.640793	-1631.201294	909.634644	-58.869564	-1601.748535	993.664612	337.756134	-1604.543457	994.907593	109.557861	-1823.989990	1015.400757	228.106842	-1831.768188	1335.892212	225.555786	-1549.238525	1261.889893	218.274033	-1655.813354	593.959717	411.026947	-1665.013062	498.585724	354.623199	-1671.790161	296.887604	421.291687	-1730.059448	58.530010	310.308838	-1772.054932	48.111141	266.982208	-1571.354614	36.630196	270.662506	-1613.294067	613.163574	2.493106	-1584.699341	512.609741	51.811295	-1698.593628	358.624786	4.700879	-1834.790161	181.503601	96.651100	-1873.896851	185.935257	157.483261	-1730.952026	57.111351	125.013275
51	0.50000000	-1653.031738	1436.879883	448.128693	-1668.423950	1500.699463	50.689655	-1754.202393	1550.976074	259.750458	-1592.835571	1455.927368	243.144684	-1696.258911	1118.568848	526.143860	-1698.026733	1165.871216	-70.616463	-1622.026062	849.431396	518.506180	-1628.467163	907.816162	-59.282585	-1591.794312	993.904724	338.474365	-1593.302002	996.088867	110.382294	-1813.308960	1016.129456	227.366867	-1821.001221	1336.251465	225.953674	-1538.525024	1262.683716	218.786514	-1651.596069	593.965576	410.879974	-1662.703979	498.614075	354.531097	-1670.817261	297.036285	421.292694	-1729.990479	58.631725	310.094513	-1772.087891	48.457699	266.969757	-1571.301025	36.615940	270.738983	-1596.729370	615.203003	3.440623	-1566.682373	515.069885	52.838028	-1674.481567	356.499054	5.133284	-1803.145020	172.977570	96.437233	-1842.851440	175.219879	157.126648	-1692.996460	54.735607	124.883331
52	0.51000000	-1642.286011	1438.638428	447.987823	-1658.672852	1500.195068	49.918098	-1743.753540	1551.433716	259.153320	-1582.305054	1456.543091	242.625473	-1682.899902	1120.269653	527.301331	-1691.530640	1164.992310	-69.959671	-1602.748657	852.894806	519.281189	-1625.596924	905.963135	-59.724102	-1581.900024	993.911133	339.158905	-1582.120972	996.934814	111.245033	-1802.658081	1016.615845	226.534866	-1810.234619	1336.409668	226.284271	-1527.791016	1263.246582	219.279160	-1647.426758	593.925781	410.789948	-1660.441040	498.620178	354.490936	-1670.008667	297.218994	421.372833	-1729.940063	58.743477	309.886963	-1772.089722	48.780411	266.898712	-1571.221680	36.572151	270.781128	-1580.497192	617.020996	4.454927	-1549.361206	517.213928	54.090656	-1650.509033	353.956421	5.713319	-1770.733643	163.972931	96.290932	-1810.834595	163.892487	156.926758	-1654.445801	52.353546	124.438690
